<?xml version="1.0" encoding="UTF-8" standalone="no"?>
<!-- Created with Inkscape (http://www.inkscape.org/) -->

<svg
   xmlns:dc="http://purl.org/dc/elements/1.1/"
   xmlns:cc="http://creativecommons.org/ns#"
   xmlns:rdf="http://www.w3.org/1999/02/22-rdf-syntax-ns#"
   xmlns:svg="http://www.w3.org/2000/svg"
   xmlns="http://www.w3.org/2000/svg"
   xmlns:xlink="http://www.w3.org/1999/xlink"
   xmlns:sodipodi="http://sodipodi.sourceforge.net/DTD/sodipodi-0.dtd"
   xmlns:inkscape="http://www.inkscape.org/namespaces/inkscape"
   version="1.0"
   width="22"
   height="22"
   id="svg2639"
   inkscape:version="0.47 r22583"
   sodipodi:docname="user-desktop.svg">
  <metadata
     id="metadata47">
    <rdf:RDF>
      <cc:Work
         rdf:about="">
        <dc:format>image/svg+xml</dc:format>
        <dc:type
           rdf:resource="http://purl.org/dc/dcmitype/StillImage" />
      </cc:Work>
    </rdf:RDF>
  </metadata>
  <sodipodi:namedview
     pagecolor="#ffffff"
     bordercolor="#666666"
     borderopacity="1"
     objecttolerance="10"
     gridtolerance="10"
     guidetolerance="10"
     inkscape:pageopacity="0"
     inkscape:pageshadow="2"
     inkscape:window-width="1280"
     inkscape:window-height="748"
     id="namedview45"
     showgrid="false"
     inkscape:zoom="30.341309"
     inkscape:cx="5.5136518"
     inkscape:cy="9.7730142"
     inkscape:window-x="0"
     inkscape:window-y="0"
     inkscape:window-maximized="1"
     inkscape:current-layer="svg2639" />
  <defs
     id="defs2641">
    <inkscape:perspective
       sodipodi:type="inkscape:persp3d"
       inkscape:vp_x="0 : 11 : 1"
       inkscape:vp_y="0 : 1000 : 0"
       inkscape:vp_z="22 : 11 : 1"
       inkscape:persp3d-origin="11 : 7.3333333 : 1"
       id="perspective49" />
    <linearGradient
       id="linearGradient8265-821-176-38-919-66-249">
      <stop
         id="stop2687"
         style="stop-color:#ffffff;stop-opacity:1"
         offset="0" />
      <stop
         id="stop2689"
         style="stop-color:#ffffff;stop-opacity:0"
         offset="1" />
    </linearGradient>
    <linearGradient
       id="linearGradient2238">
      <stop
         id="stop2240"
         style="stop-color:#ffffff;stop-opacity:1"
         offset="0" />
      <stop
         id="stop2242"
         style="stop-color:#ffffff;stop-opacity:0"
         offset="1" />
    </linearGradient>
    <linearGradient
       id="linearGradient3282">
      <stop
         id="stop3284"
         style="stop-color:#000000;stop-opacity:1"
         offset="0" />
      <stop
         id="stop3286"
         style="stop-color:#000000;stop-opacity:0"
         offset="1" />
    </linearGradient>
    <linearGradient
       x1="33.579403"
       y1="5.7086449"
       x2="33.579403"
       y2="16.323294"
       id="linearGradient2419"
       xlink:href="#linearGradient2522"
       gradientUnits="userSpaceOnUse"
       gradientTransform="matrix(0.3802462,0,0,0.329847,-1.2543548,0.3664358)" />
    <linearGradient
       x1="16.91585"
       y1="7.0006418"
       x2="16.91585"
       y2="14"
       id="linearGradient2421"
       xlink:href="#linearGradient2515"
       gradientUnits="userSpaceOnUse"
       gradientTransform="matrix(0.4666493,0,0,0.5000537,-0.1999749,-1.2507234)" />
    <linearGradient
       x1="24.682861"
       y1="9.2416716"
       x2="24.682861"
       y2="13.523027"
       id="linearGradient2424"
       xlink:href="#linearGradient3282"
       gradientUnits="userSpaceOnUse"
       gradientTransform="matrix(0.4346869,0,0,0.2340043,0.5704707,3.8374098)" />
    <linearGradient
       x1="22.762604"
       y1="-4.8771"
       x2="22.762604"
       y2="43.84375"
       id="linearGradient2427"
       xlink:href="#linearGradient2238"
       gradientUnits="userSpaceOnUse"
       gradientTransform="matrix(0.4218075,0,0,0.3842123,0.8761112,2.165418)" />
    <linearGradient
       x1="16.626165"
       y1="15.298182"
       x2="20.054544"
       y2="24.627615"
       id="linearGradient2430"
       xlink:href="#linearGradient8265-821-176-38-919-66-249"
       gradientUnits="userSpaceOnUse"
       gradientTransform="matrix(0.4353741,0,0,0.4823445,0.5510204,0.121006)" />
    <radialGradient
       cx="26.616697"
       cy="-2.0644982"
       r="23"
       fx="26.616697"
       fy="-2.0644982"
       id="radialGradient2433"
       xlink:href="#linearGradient3242-593-605-251-305"
       gradientUnits="userSpaceOnUse"
       gradientTransform="matrix(0,-0.4895932,0.6517645,0,16.583449,25.946788)" />
    <linearGradient
       x1="10.014208"
       y1="44.960102"
       x2="10.014208"
       y2="2.8764627"
       id="linearGradient2435"
       xlink:href="#linearGradient3332-412-419-652-471"
       gradientUnits="userSpaceOnUse"
       gradientTransform="matrix(0.4467866,0,0,0.41508,0.2771291,1.0213291)" />
    <linearGradient
       id="linearGradient2522">
      <stop
         id="stop2524"
         style="stop-color:#fdfdf8;stop-opacity:1"
         offset="0" />
      <stop
         id="stop2526"
         style="stop-color:#d6d3b4;stop-opacity:1"
         offset="1" />
    </linearGradient>
    <linearGradient
       id="linearGradient2515">
      <stop
         id="stop2517"
         style="stop-color:#aeae94;stop-opacity:1"
         offset="0" />
      <stop
         id="stop2519"
         style="stop-color:#626337;stop-opacity:1"
         offset="1" />
    </linearGradient>
    <linearGradient
       id="linearGradient3242-593-605-251-305">
      <stop
         id="stop2749"
         style="stop-color:#d78ec1;stop-opacity:1"
         offset="0" />
      <stop
         id="stop2751"
         style="stop-color:#c564be;stop-opacity:1"
         offset="0.26238" />
      <stop
         id="stop2753"
         style="stop-color:#9d3ea4;stop-opacity:1"
         offset="0.66093999" />
      <stop
         id="stop2755"
         style="stop-color:#5e2c73;stop-opacity:1"
         offset="1" />
    </linearGradient>
    <linearGradient
       id="linearGradient3332-412-419-652-471">
      <stop
         id="stop2759"
         style="stop-color:#650d5c;stop-opacity:1"
         offset="0" />
      <stop
         id="stop2761"
         style="stop-color:#ad53a5;stop-opacity:1"
         offset="1" />
    </linearGradient>
    <radialGradient
       cx="26.616697"
       cy="-2.0644982"
       r="23"
       fx="26.616697"
       fy="-2.0644982"
       id="radialGradient2566"
       xlink:href="#linearGradient3242-593-605-251-305"
       gradientUnits="userSpaceOnUse"
       gradientTransform="matrix(-1.8187668e-8,-1.0656573,1.3967139,0,-14.706694,41.021082)" />
    <linearGradient
       x1="10.014208"
       y1="44.960102"
       x2="10.014208"
       y2="2.8764627"
       id="linearGradient2568"
       xlink:href="#linearGradient3332-412-419-652-471"
       gradientUnits="userSpaceOnUse"
       gradientTransform="matrix(0.9574517,0,0,0.9034707,-49.650702,-13.232121)" />
    <radialGradient
       cx="26.616697"
       cy="-2.0644982"
       r="23"
       fx="26.616697"
       fy="-2.0644982"
       id="radialGradient3360"
       xlink:href="#linearGradient3242-593-605-251-305"
       gradientUnits="userSpaceOnUse"
       gradientTransform="matrix(0,-0.4895957,0.6517659,0,16.583486,25.958483)" />
    <linearGradient
       x1="10.014208"
       y1="44.960102"
       x2="10.014208"
       y2="2.8764627"
       id="linearGradient3362"
       xlink:href="#linearGradient3332-412-419-652-471"
       gradientUnits="userSpaceOnUse"
       gradientTransform="matrix(0.4467876,0,0,0.4150822,0.2771303,1.0328959)" />
  </defs>
  <rect
     width="20.997826"
     height="16.998301"
     rx="1.4532951"
     ry="1.4241893"
     x="0.50108719"
     y="2.5008497"
     id="rect1316"
     style="fill:#800000;fill-opacity:1;fill-rule:evenodd;stroke:url(#linearGradient2435);stroke-width:1.00213288999999994;stroke-linecap:round;stroke-linejoin:round;marker:none;marker-start:none;marker-mid:none;marker-end:none;stroke-miterlimit:4;stroke-dasharray:none;stroke-dashoffset:0;stroke-opacity:1;visibility:visible;display:inline;overflow:visible;enable-background:accumulate" />
  <path
     d="M 1.9523809,3 C 1.4263283,3 1,3.472323 1,4.055128 L 1,11.772639 C 1.00121,11.837569 1.026905,11.898961 1.070857,11.941926 C 1.114809,11.984896 1.1729953,12.005496 1.2312923,11.998736 L 20.823128,8.562034 C 20.923908,8.544425 20.99859,8.448957 21,8.335934 L 21,4.055128 C 21,3.472323 20.57367,3 20.047618,3 L 1.9523809,3 z"
     id="path3278"
     style="opacity:0.2;fill:url(#linearGradient2430);fill-opacity:1;fill-rule:evenodd;stroke:none" />
  <rect
     width="18.997868"
     height="14.997867"
     rx="0.55883807"
     ry="0.54499364"
     x="1.5010666"
     y="3.5010633"
     id="rect2232"
     style="opacity:0.4;fill:none;stroke:url(#linearGradient2427);stroke-width:1.00213313;stroke-linecap:round;stroke-linejoin:round;stroke-miterlimit:4;stroke-dasharray:none;stroke-dashoffset:0;stroke-opacity:1" />
  <rect
     width="20"
     height="1"
     rx="0"
     ry="0"
     x="1"
     y="6"
     id="rect1436"
     style="opacity:0.2;fill:url(#linearGradient2424);fill-opacity:1;fill-rule:evenodd;stroke:none;stroke-width:1.00000012;stroke-linecap:butt;stroke-linejoin:miter;marker:none;marker-start:none;marker-mid:none;marker-end:none;stroke-miterlimit:4;stroke-dasharray:none;stroke-dashoffset:0;stroke-opacity:1;visibility:visible;display:inline;overflow:visible" />
  <path
     d="M 1.8999478,2.4999998 C 1.8999478,2.4999998 20.256173,2.5042948 20.256173,2.5042948 C 20.986443,2.5042948 21.499219,3.1349549 21.499219,3.8328263 C 21.499219,3.8328263 21.499219,5.4999999 21.499219,5.4999999 C 21.499219,5.4999999 0.49999995,5.4999999 0.49999995,5.4999999 C 0.49999995,5.4999999 0.49999995,3.8328263 0.49999995,3.8328263 C 0.49999995,3.0889863 1.0640786,2.4999998 1.8999478,2.4999998 z"
     id="rect2311"
     style="fill:url(#linearGradient2419);fill-opacity:1;fill-rule:evenodd;stroke:url(#linearGradient2421);stroke-width:0.99999988;stroke-linecap:butt;stroke-linejoin:miter;marker:none;marker-start:none;marker-mid:none;marker-end:none;stroke-miterlimit:4;stroke-dasharray:none;stroke-dashoffset:0;stroke-opacity:1;visibility:visible;display:inline;overflow:visible" />
  <path
     d="M 2.4999608,7.4999605 C 2.9200887,7.4999605 3.4867467,7.4999605 3.906875,7.4999605 C 3.9805744,7.5323203 4.3966445,7.926539 4.5000349,8.1817996 C 4.5000349,8.9630657 4.5000393,9.7187724 4.5000393,10.500039 C 3.8889018,10.500039 3.1110984,10.500039 2.4999608,10.500039 C 2.4999608,9.5000129 2.4999608,8.4999865 2.4999608,7.4999605 z"
     id="path4160"
     style="fill:#f2f2f2;fill-opacity:1;stroke:#cccccc;stroke-width:0.99992156;stroke-linecap:butt;stroke-linejoin:round;stroke-miterlimit:4;stroke-dasharray:none;stroke-dashoffset:0;stroke-opacity:1;display:inline" />
  <path
     d="M 2.4999608,12.49996 C 2.9200887,12.49996 3.4867467,12.49996 3.906875,12.49996 C 3.9805744,12.53232 4.3966445,12.926538 4.5000349,13.181799 C 4.5000349,13.963065 4.5000393,14.718772 4.5000393,15.500039 C 3.8889018,15.500039 3.1110984,15.500039 2.4999608,15.500039 C 2.4999608,14.500013 2.4999608,13.499986 2.4999608,12.49996 z"
     id="path4156"
     style="fill:#f2f2f2;fill-opacity:1;stroke:#cccccc;stroke-width:0.9999215;stroke-linecap:butt;stroke-linejoin:round;stroke-miterlimit:4;stroke-dasharray:none;stroke-dashoffset:0;stroke-opacity:1;display:inline" />
  <path
     style="fill:#550000;stroke-width:1.00199997;stroke-miterlimit:4;stroke-dasharray:none"
     d="M 0.03816844,18.275945 C 0.02608371,18.26386 0.0161962,18.056222 0.0161962,17.814528 l 0,-0.439445 0.47789632,0 0.47789632,0 2.8674e-4,0.288385 c 1.582e-4,0.158613 0.009639,0.36625 0.02107,0.461418 l 0.0207832,0.173031 -0.47699404,0 c -0.26234674,0 -0.48688158,-0.0099 -0.49896632,-0.02197 z"
     id="path2855" />
  <path
     style="fill:#550000;stroke-width:1.00199997;stroke-miterlimit:4;stroke-dasharray:none"
     d="M 0.27645975,18.273587 0.05882699,18.262167 0.03751159,17.961874 C 0.02578813,17.796713 0.0161962,15.276026 0.0161962,12.360348 l 0,-5.3012341 0.47789632,0 0.47789632,0 4.4988e-4,5.5452451 c 2.4719e-4,3.049885 0.009393,5.578616 0.0203232,5.619402 0.0194761,0.07268 0.0146933,0.07403 -0.2393982,0.0677 -0.14259922,-0.0036 -0.35720605,-0.01159 -0.47690408,-0.01788 l 1.6e-7,0 z"
     id="path2857" />
  <path
     style="fill:#550000;stroke-width:1.00199997;stroke-miterlimit:4;stroke-dasharray:none"
     d="m 0.0161962,6.6471343 0,-0.4119796 0.47789632,0 0.47789632,0 0,0.4119796 0,0.4119796 -0.47789632,0 -0.47789632,0 0,-0.4119796 z"
     id="path2859" />
  <path
     style="fill:#550000;stroke-width:1.00199997;stroke-miterlimit:4;stroke-dasharray:none"
     d="M 0.23866518,18.273561 0.04915457,18.261669 0.04890081,18.090283 C 0.04876124,17.99602 0.03971272,15.290054 0.02879299,12.077025 l -0.01985406,-5.8418703 0.48152497,0 0.48152494,0 4.4988e-4,5.9572253 c 2.4719e-4,3.276473 0.009393,5.990595 0.0203232,6.031381 0.0196015,0.07314 0.0158795,0.07407 -0.27235657,0.06792 -0.16072616,-0.0034 -0.37750929,-0.01158 -0.48174012,-0.01812 z"
     id="path2861" />
  <path
     style="fill:#550000;stroke-width:1.00199997;stroke-miterlimit:4;stroke-dasharray:none"
     d="m 0.22218599,18.273619 c -0.13567315,-0.0095 -0.1731851,-0.02419 -0.1737432,-0.06806 -3.9148e-4,-0.03078 -0.0096349,-2.788615 -0.02054097,-6.128534 l -0.0198292,-6.0725789 0.48195811,0 0.48195811,0 0,6.0437409 c 0,3.324057 0.00927,6.090088 0.020599,6.146735 l 0.020599,0.102995 -0.30898469,-0.0061 c -0.16994158,-0.0034 -0.38684883,-0.01154 -0.48201612,-0.0182 z"
     id="path2863" />
  <path
     style="fill:#550000;stroke-width:1.00199997;stroke-miterlimit:4;stroke-dasharray:none"
     d="M 1.6311562,19.956024 C 1.2582044,19.893594 0.8745466,19.690915 0.58937674,19.405672 0.34737248,19.163607 0.20985151,18.940998 0.10864506,18.627501 0.01716217,18.344123 0.02580025,18.298964 0.17274844,18.292377 l 0.12359388,-0.0055 -0.12359388,-0.01293 c -0.0679766,-0.0071 -0.12427377,-0.01574 -0.12510476,-0.01918 -8.3099e-4,-0.0034 -0.01014517,-2.761157 -0.0206982,-6.128266 l -0.0191873,-6.1220169 0.48211534,0 0.48211532,0 0.001447,5.9407459 c 7.9595e-4,3.26741 0.0137192,6.046535 0.0287182,6.175833 0.047829,0.412314 0.2006259,0.629433 0.5630852,0.800129 l 0.1812711,0.08537 9.2613015,0 9.261301,0 0.172275,-0.07789 c 0.190777,-0.08625 0.41694,-0.309899 0.489848,-0.484393 l 0.04737,-0.113364 0.494561,0 0.494561,0 -0.02007,0.09064 c -0.16876,0.762225 -0.75129,1.355423 -1.480794,1.507913 -0.199594,0.04172 -1.479725,0.0477 -9.49201,0.04431 -5.0937154,-0.0022 -9.2983791,-0.01012 -9.3436968,-0.01771 z"
     id="path2865" />
  <path
     style="fill:#550000;stroke-width:1.00199997;stroke-miterlimit:4;stroke-dasharray:none"
     d="M 1.4663643,19.898752 C 0.79512343,19.712336 0.17669155,19.065563 0.09165834,18.461048 0.07774922,18.362166 0.08722557,18.338252 0.15281211,18.306727 l 0.0776135,-0.03731 -0.0906355,-0.0022 c -0.04984953,-0.0012 -0.09161211,-0.0059 -0.09280574,-0.01047 -0.0011936,-0.0045 -0.01046678,-2.763147 -0.02060699,-6.130256 l -0.01843676,-6.1220169 0.48202413,0 0.48202413,0 0.002124,5.6111619 c 0.002255,5.958184 0.0140924,6.688641 0.11149545,6.880059 0.087742,0.172432 0.209936,0.289351 0.4333614,0.414654 l 0.2009175,0.11268 9.2841653,0 9.284166,0 0.133797,-0.06826 c 0.167697,-0.08555 0.400356,-0.298127 0.497807,-0.454833 l 0.07437,-0.119597 0.0088,-5.6606 0.0088,-5.6605991 0.49447,0 0.49447,0 -0.0098,5.6111621 c -0.0092,5.295657 -0.0131,5.622157 -0.06916,5.806704 -0.245932,0.80955 -0.839942,1.352186 -1.572382,1.43639 -0.448812,0.0516 -18.695483,0.03747 -18.8830457,-0.01462 z"
     id="path2867" />
  <path
     style="fill:#550000;stroke-width:1.00199997;stroke-miterlimit:4;stroke-dasharray:none"
     d="m 21.010676,6.6141759 0,-0.444938 0.494375,0 0.494376,0 0,0.444938 0,0.444938 -0.494376,0 -0.494375,0 0,-0.444938 z"
     id="path2869" />
  <path
     style="fill:#550000;stroke-width:1.00199997;stroke-miterlimit:4;stroke-dasharray:none"
     d="M 1.4663643,19.898663 C 0.92955741,19.749262 0.41841708,19.31154 0.19753365,18.812083 0.0784219,18.54275 0.05725554,18.373212 0.13535925,18.314078 0.19542622,18.2686 0.1951698,18.26702 0.12755663,18.266007 0.06237185,18.265029 0.0564769,18.243236 0.0403506,17.943615 0.03083811,17.766875 0.01987588,15.00826 0.0159901,11.813358 l -0.00706506,-5.8089119 0.48153191,0 0.48153189,0 0.002707,5.3145369 c 0.001489,2.922995 0.0135917,5.707565 0.0268952,6.187933 0.030135,1.088134 0.039778,1.114457 0.5122719,1.39841 l 0.1958112,0.117675 9.2892717,0 9.289272,0 0.135201,-0.06898 c 0.193364,-0.09865 0.43875,-0.339456 0.518249,-0.508583 0.06819,-0.145071 0.06821,-0.147108 0.06953,-6.210662 l 0.0013,-6.0655431 0.488861,0 0.488863,0 -0.01198,4.6883281 c -0.0066,2.57858 -0.01731,5.340903 -0.02383,6.138495 l -0.01185,1.450169 -0.09191,0.230708 c -0.279109,0.700641 -0.837673,1.161357 -1.499173,1.236552 -0.453558,0.05156 -18.6980893,0.03723 -18.8851447,-0.01483 z"
     id="path2871" />
  <path
     style="fill:#550000;stroke-width:1.00199997;stroke-miterlimit:4;stroke-dasharray:none"
     d="M 1.4663643,19.898663 C 0.9321579,19.749986 0.43521187,19.329759 0.20961787,18.835935 c -0.129026,-0.282436 -0.1561596,-0.468512 -0.0767824,-0.526554 0.0582021,-0.04256 0.0579112,-0.04442 -0.006932,-0.04442 -0.06130904,0 -0.0694251,-0.02561 -0.08617403,-0.271907 C 0.02955928,17.843503 0.01893413,15.084888 0.01611756,11.862796 l -0.005121,-5.8583499 0.48049617,0 0.48049614,0 0.002663,5.0014319 c 0.003116,5.852419 0.0237942,7.277025 0.10846802,7.47286 0.076959,0.177992 0.1633351,0.263838 0.4181199,0.415555 l 0.2161465,0.128708 9.2975927,0 9.297593,0 0.208217,-0.140073 c 0.233745,-0.157247 0.404573,-0.36154 0.455425,-0.544646 0.02292,-0.08252 0.03415,-2.124016 0.03428,-6.228298 l 1.84e-4,-6.1055379 0.49212,0 0.49212,0 -0.01438,5.1167869 c -0.0079,2.814232 -0.02056,5.615609 -0.02812,6.225282 l -0.01374,1.108496 -0.08995,0.226318 c -0.277122,0.697219 -0.835778,1.156972 -1.497221,1.232161 -0.453558,0.05156 -18.6980893,0.03723 -18.8851447,-0.01483 z"
     id="path2873" />
</svg>
