<?xml version="1.0" encoding="UTF-8" standalone="no"?>
<!-- Created with Inkscape (http://www.inkscape.org/) -->

<svg
   xmlns:dc="http://purl.org/dc/elements/1.1/"
   xmlns:cc="http://creativecommons.org/ns#"
   xmlns:rdf="http://www.w3.org/1999/02/22-rdf-syntax-ns#"
   xmlns:svg="http://www.w3.org/2000/svg"
   xmlns="http://www.w3.org/2000/svg"
   xmlns:sodipodi="http://sodipodi.sourceforge.net/DTD/sodipodi-0.dtd"
   xmlns:inkscape="http://www.inkscape.org/namespaces/inkscape"
   version="1.0"
   width="16"
   height="16"
   id="svg2403"
   inkscape:version="0.47 r22583"
   sodipodi:docname="system-shutdown-panel.svg">
  <metadata
     id="metadata8">
    <rdf:RDF>
      <cc:Work
         rdf:about="">
        <dc:format>image/svg+xml</dc:format>
        <dc:type
           rdf:resource="http://purl.org/dc/dcmitype/StillImage" />
      </cc:Work>
    </rdf:RDF>
  </metadata>
  <sodipodi:namedview
     pagecolor="#ffffff"
     bordercolor="#666666"
     borderopacity="1"
     objecttolerance="10"
     gridtolerance="10"
     guidetolerance="10"
     inkscape:pageopacity="0"
     inkscape:pageshadow="2"
     inkscape:window-width="1280"
     inkscape:window-height="748"
     id="namedview6"
     showgrid="false"
     inkscape:zoom="14.75"
     inkscape:cx="8"
     inkscape:cy="8"
     inkscape:window-x="0"
     inkscape:window-y="0"
     inkscape:window-maximized="1"
     inkscape:current-layer="svg2403" />
  <defs
     id="defs2405">
    <inkscape:perspective
       sodipodi:type="inkscape:persp3d"
       inkscape:vp_x="0 : 8 : 1"
       inkscape:vp_y="0 : 1000 : 0"
       inkscape:vp_z="16 : 8 : 1"
       inkscape:persp3d-origin="8 : 5.3333333 : 1"
       id="perspective10" />
  </defs>
  <path
     d="M 5.1949685,4.1179418 C 0.54498713,6.5446563 2.6476962,13.498596 7.963745,13.498596 C 13.224416,13.498596 15.582165,6.9059383 10.73252,4.1179418"
     id="path3339"
     style="opacity:1;fill:none;fill-opacity:1;fill-rule:evenodd;stroke:#969696;stroke-width:1.89999998;stroke-linecap:round;stroke-linejoin:miter;marker:none;marker-start:none;marker-mid:none;marker-end:none;stroke-miterlimit:4;stroke-dasharray:none;stroke-dashoffset:0;stroke-opacity:1;visibility:visible;display:inline;overflow:visible" />
  <path
     d="M 8.0000001,6.9951873 L 8.0000001,2.0048132"
     id="path3341"
     style="opacity:1;fill:none;fill-opacity:1;fill-rule:evenodd;stroke:#969696;stroke-width:1.89999998;stroke-linecap:round;stroke-linejoin:miter;marker:none;marker-start:none;marker-mid:none;marker-end:none;stroke-miterlimit:4;stroke-dasharray:none;stroke-dashoffset:0;stroke-opacity:1;visibility:visible;display:inline;overflow:visible" />
  <path
     style="fill:#550000;stroke-width:1.00199997;stroke-miterlimit:4;stroke-dasharray:none"
     d="M 6.6552658,14.289239 C 3.5671027,13.646212 1.3923551,10.648425 1.7702668,7.5555007 1.9825461,5.8181536 2.9725893,4.3612565 4.5898305,3.4063747 5.1361302,3.0838181 5.7187881,3.2255654 6.006733,3.7510746 6.2646,4.2216904 5.9908524,4.7275868 5.2410422,5.1661017 4.5987611,5.5417299 4.0057978,6.2924487 3.7355717,7.0720969 3.5189818,7.6969955 3.5177778,8.7371844 3.732834,9.4372881 c 0.4682876,1.5244839 1.6690618,2.6715889 3.1620813,3.0207469 0.7176437,0.167829 1.9415545,0.109867 2.5989559,-0.123081 0.7131318,-0.252696 1.1941338,-0.558433 1.7433708,-1.108128 0.529692,-0.530134 0.96908,-1.3150684 1.107974,-1.9793156 0.0936,-0.4476307 0.09461,-1.372277 0.0019,-1.7744388 C 12.154831,6.6384018 11.424361,5.6595988 10.584008,5.1105127 10.080753,4.7816856 9.9025214,4.5529916 9.8607607,4.1824938 9.8353336,3.9569036 9.8621437,3.8308261 9.9740556,3.6497525 10.149291,3.3662155 10.615189,3.1576709 10.908927,3.231287 c 0.56339,0.1411963 1.785596,1.1623969 2.368688,1.979131 1.128108,1.5801362 1.31014,3.7331814 0.469464,5.552715 -0.343291,0.743009 -0.684182,1.229035 -1.263387,1.801276 -0.796198,0.786626 -1.61168,1.270074 -2.6873103,1.593136 -0.5101864,0.153233 -0.7482542,0.18236 -1.6472264,0.201533 -0.7061767,0.01506 -1.1961614,-0.0078 -1.4938868,-0.06984 l -2.7e-6,0 z"
     id="path2816" />
  <path
     style="fill:#550000;stroke-width:1.00199997;stroke-miterlimit:4;stroke-dasharray:none"
     d="M 7.4405928,7.6683833 C 7.2979822,7.5431696 7.1732788,7.3525424 7.1308147,7.1948428 7.0854364,7.0263206 7.0667103,6.0051733 7.0790217,4.3705273 7.0949542,2.2550784 7.1159764,1.7758863 7.2,1.6128769 7.4365465,1.1539665 8.0045014,0.97753077 8.4324373,1.2300191 8.9028032,1.5075418 8.9030198,1.5091779 8.8808271,4.6160147 8.8618098,7.2783227 8.8555969,7.3952955 8.7255838,7.5388839 8.3622606,7.9401431 7.8131385,7.9954827 7.4405928,7.6683833 l 0,0 z"
     id="path2818" />
</svg>
