<?xml version="1.0" encoding="UTF-8" standalone="no"?>
<!-- Created with Inkscape (http://www.inkscape.org/) -->

<svg
   xmlns:dc="http://purl.org/dc/elements/1.1/"
   xmlns:cc="http://creativecommons.org/ns#"
   xmlns:rdf="http://www.w3.org/1999/02/22-rdf-syntax-ns#"
   xmlns:svg="http://www.w3.org/2000/svg"
   xmlns="http://www.w3.org/2000/svg"
   xmlns:xlink="http://www.w3.org/1999/xlink"
   xmlns:sodipodi="http://sodipodi.sourceforge.net/DTD/sodipodi-0.dtd"
   xmlns:inkscape="http://www.inkscape.org/namespaces/inkscape"
   id="svg2"
   version="1.1"
   inkscape:version="0.47 r22583"
   width="54"
   height="54"
   sodipodi:docname="2ubuntu-logo.svg">
  <metadata
     id="metadata8">
    <rdf:RDF>
      <cc:Work
         rdf:about="">
        <dc:format>image/svg+xml</dc:format>
        <dc:type
           rdf:resource="http://purl.org/dc/dcmitype/StillImage" />
      </cc:Work>
    </rdf:RDF>
  </metadata>
  <defs
     id="defs6">
    <inkscape:perspective
       sodipodi:type="inkscape:persp3d"
       inkscape:vp_x="0 : 0.5 : 1"
       inkscape:vp_y="0 : 1000 : 0"
       inkscape:vp_z="1 : 0.5 : 1"
       inkscape:persp3d-origin="0.5 : 0.33333333 : 1"
       id="perspective10" />
  </defs>
  <sodipodi:namedview
     pagecolor="#ffffff"
     bordercolor="#666666"
     borderopacity="1"
     objecttolerance="10"
     gridtolerance="10"
     guidetolerance="10"
     inkscape:pageopacity="0"
     inkscape:pageshadow="2"
     inkscape:window-width="1280"
     inkscape:window-height="748"
     id="namedview4"
     showgrid="false"
     inkscape:zoom="6.7205826"
     inkscape:cx="17.259215"
     inkscape:cy="19.449153"
     inkscape:window-x="0"
     inkscape:window-y="0"
     inkscape:window-maximized="1"
     inkscape:current-layer="svg2" />
  <image
     xlink:href="file:///home/archangelamael/Desktop/2ubuntu-logo.png"
     width="54"
     height="54"
     id="image12"
     x="0"
     y="0" />
  <path
     style="fill:#000000"
     d="M 2.1013502,51.62212 C 1.3061559,50.663969 1.0403918,44.128774 1.2289055,30.16852 L 1.5,10.092802 13.25,17.78087 25,25.468938 l 0,4.57844 c 0,5.128521 0.749368,6.043913 11.743363,14.345134 3.43385,2.592792 6.712182,5.590165 7.285184,6.660828 C 45.045415,52.953375 44.569482,53 24.157628,53 7.6122407,53 3.0060763,52.712248 2.1013502,51.62212 z M 48.614695,44.561485 c -1.442476,-1.891183 -2.217327,-3.689038 -1.721892,-3.995234 0.980765,-0.606145 -5.671382,-17.603346 -7.35807,-18.800938 -0.569103,-0.404078 -2.462675,-0.741578 -4.207938,-0.75 C 32.513939,21.001739 31.62513,20.205081 27.5,14 24.940525,10.15 22.604892,7 22.309705,7 c -0.295187,0 -0.338566,1.35 -0.0964,3 0.242168,1.65 0.103139,3 -0.308953,3 C 20.974608,13 12,2.8216296 12,1.7671758 12,1.3452291 14.186013,1 16.857806,1 c 4.820872,0 4.900603,0.053716 10.48673,7.06508 3.095909,3.885794 5.972396,7.639031 6.392195,8.340527 0.419798,0.701496 1.796761,1.53557 3.059919,1.853499 l 2.296649,0.578053 -1.908704,-3.014591 C 36.134808,14.164543 32.937284,10.151182 30.078986,6.9039882 L 24.88208,1 37.74104,1 C 46.40912,1 50.991094,1.3910935 51.8,2.2 53.232591,3.6325912 53.541312,48 52.118689,48 51.633968,48 50.05717,46.452668 48.614695,44.561485 z m -8.155814,-9.628016 c -0.362533,-0.586592 -0.444683,-1.281 -0.182555,-1.543128 0.262128,-0.262129 0.743066,0.21781 1.068751,1.066531 0.676184,1.762107 0.09985,2.072058 -0.886196,0.476597 z M 7.5588704,2.4681966 C 5.6618659,1.0333746 5.6675488,1 7.8088704,1 9.0898745,1 10,1.6230523 10,2.5 10,4.3095483 9.9932387,4.3094602 7.5588704,2.4681966 z"
     id="path2818" />
  <path
     style="fill:#aa0000;stroke-width:1.00199997;stroke-miterlimit:4;stroke-dasharray:none"
     d="M 9.1795583,52.726369 C 5.9867073,52.597685 3.7098958,52.318169 2.8283854,51.946659 2.5211342,51.817169 2.1831189,51.527772 2.0591719,51.288085 1.3210576,49.860729 1.146541,43.167197 1.3714009,24.908826 1.4706763,16.847769 1.5606832,10.244942 1.5714161,10.235877 c 0.010733,-0.0091 0.9569331,0.601767 2.1026671,1.357405 2.4097553,1.589288 8.8401588,5.806493 11.9781278,7.855528 1.186654,0.774863 3.662162,2.395089 5.501131,3.600502 1.838967,1.205414 3.419822,2.220919 3.513011,2.256679 0.116277,0.04462 0.19778,1.147899 0.25979,3.516643 0.04969,1.898394 0.159712,3.786417 0.244481,4.195608 0.53786,2.596314 2.281588,4.376417 10.271539,10.485814 6.292942,4.811803 9.399493,7.924782 8.653185,8.671089 -0.08576,0.08576 -0.611458,0.256143 -1.168226,0.378636 -0.855103,0.188129 -3.323014,0.228136 -15.891969,0.257622 -8.183814,0.0192 -16.218832,-0.01907 -17.8555947,-0.08503 z"
     id="path2866" />
  <path
     style="fill:#800000;stroke-width:1.00199996999999996;stroke-miterlimit:4;stroke-dasharray:none"
     d="m 50.396223,46.440702 c -1.423266,-1.472067 -2.719681,-3.227341 -3.221439,-4.361652 -0.240522,-0.54374 -0.284446,-0.854891 -0.207555,-1.470304 0.07053,-0.564479 0.01291,-1.112031 -0.208101,-1.977644 -0.938312,-3.675005 -4.30063,-12.12216 -6.143149,-15.433437 -0.374228,-0.672544 -0.861515,-1.325936 -1.120163,-1.502001 -0.504028,-0.343098 -1.722247,-0.564171 -4.313182,-0.782722 -1.37362,-0.115868 -1.791222,-0.210355 -2.333037,-0.52788 -1.070639,-0.627437 -2.458505,-2.31159 -5.161993,-6.263991 -2.882522,-4.214145 -4.93782,-6.9960417 -5.260138,-7.1197268 -0.12027,-0.046152 -0.262555,-0.01291 -0.31619,0.073873 -0.05363,0.086782 -0.04941,1.2832645 0.0094,2.6588497 0.108972,2.5494839 0.0574,3.1222329 -0.281153,3.1222329 -0.28566,0 -3.252959,-2.9443731 -5.098477,-5.0590856 -3.040437,-3.4839267 -4.822495,-5.8535176 -4.577826,-6.087108 0.345459,-0.3298173 1.528555,-0.4920528 4.138208,-0.5674635 2.97197,-0.085881 3.963565,0.02743 5.046408,0.5766587 1.076925,0.5462262 3.059528,2.7319228 6.795378,7.4914807 0.578124,0.7365433 1.473927,1.8748377 1.990675,2.5295427 0.516747,0.654705 1.611743,2.094312 2.433323,3.199127 1.960162,2.635915 2.272708,2.860096 4.976408,3.569441 1.347294,0.353477 1.627981,0.389874 1.555788,0.201741 -0.04845,-0.126251 -0.785728,-1.277508 -1.638404,-2.558351 C 35.310253,12.921561 32.687645,9.6903134 27.05743,3.3343246 l -1.912081,-2.15856 8.53353,-0.04573 c 11.138508,-0.059689 16.275339,0.2097928 17.661355,0.9265289 0.289742,0.1498318 0.498812,0.3939255 0.554228,0.6470727 0.04894,0.2235664 0.116995,0.4959867 0.151231,0.6053787 0.03424,0.1093918 0.160866,1.4820407 0.281394,3.0503308 0.841079,10.9439061 0.833477,36.4668421 -0.0122,40.9747101 -0.05931,0.316168 -0.178148,0.489855 -0.335656,0.490593 -0.134108,5.95e-4 -0.84646,-0.622148 -1.583004,-1.383947 l -3e-6,0 z"
     id="path2868" />
  <path
     style="fill:#800000;stroke-width:1.00199997;stroke-miterlimit:4;stroke-dasharray:none"
     d="M 7.752426,52.582055 C 5.3168389,52.428237 3.6748903,52.178147 2.9115541,51.844729 1.6551051,51.295927 1.5252847,50.195505 1.4190225,39.193302 1.3441273,31.438784 1.5614545,10.678626 1.7191788,10.520901 c 0.037642,-0.03764 4.711279,2.971363 10.3858602,6.686678 5.67458,3.715314 10.794892,7.061925 11.378473,7.436911 0.583579,0.374987 1.096668,0.73942 1.140197,0.809851 0.04353,0.07043 0.154332,1.75159 0.246227,3.735904 0.193336,4.174683 0.372831,4.994006 1.397827,6.38053 0.972358,1.315318 3.022003,3.18225 6.528616,5.946628 7.654671,6.034427 9.874236,7.96078 10.82314,9.393365 0.645523,0.974562 0.602634,1.167023 -0.328335,1.47337 -0.718778,0.236524 -2.094644,0.259422 -17.223209,0.286649 -9.043115,0.01627 -17.2851119,-0.02366 -18.315549,-0.08873 z"
     id="path2870" />
  <path
     style="fill:#800000;stroke-width:1.00199997;stroke-miterlimit:4;stroke-dasharray:none"
     d="M 7.8775879,2.5903888 C 6.9978278,1.9367813 6.2780242,1.3343663 6.2780242,1.2516889 c 0,-0.2302333 2.1642735,-0.1825931 2.7459432,0.060444 C 9.7871811,1.631024 10.048164,2.1296119 9.924088,3.0317485 9.8675093,3.4431249 9.7438027,3.7794941 9.6491846,3.7792358 9.5545665,3.7789775 8.7573479,3.2439963 7.8775879,2.5903888 z"
     id="path2872" />
</svg>
