<?xml version="1.0" encoding="UTF-8" standalone="no"?>
<!-- Created with Inkscape (http://www.inkscape.org/) -->

<svg
   xmlns:dc="http://purl.org/dc/elements/1.1/"
   xmlns:cc="http://creativecommons.org/ns#"
   xmlns:rdf="http://www.w3.org/1999/02/22-rdf-syntax-ns#"
   xmlns:svg="http://www.w3.org/2000/svg"
   xmlns="http://www.w3.org/2000/svg"
   xmlns:xlink="http://www.w3.org/1999/xlink"
   xmlns:sodipodi="http://sodipodi.sourceforge.net/DTD/sodipodi-0.dtd"
   xmlns:inkscape="http://www.inkscape.org/namespaces/inkscape"
   version="1.0"
   width="128"
   height="128"
   id="svg9481"
   inkscape:version="0.47 r22583"
   sodipodi:docname="user-desktop.svg">
  <metadata
     id="metadata96">
    <rdf:RDF>
      <cc:Work
         rdf:about="">
        <dc:format>image/svg+xml</dc:format>
        <dc:type
           rdf:resource="http://purl.org/dc/dcmitype/StillImage" />
      </cc:Work>
    </rdf:RDF>
  </metadata>
  <sodipodi:namedview
     pagecolor="#ffffff"
     bordercolor="#666666"
     borderopacity="1"
     objecttolerance="10"
     gridtolerance="10"
     guidetolerance="10"
     inkscape:pageopacity="0"
     inkscape:pageshadow="2"
     inkscape:window-width="1280"
     inkscape:window-height="748"
     id="namedview94"
     showgrid="false"
     showguides="false"
     inkscape:zoom="5.6568542"
     inkscape:cx="62.081235"
     inkscape:cy="55.475388"
     inkscape:window-x="0"
     inkscape:window-y="0"
     inkscape:window-maximized="1"
     inkscape:current-layer="svg9481">
    <inkscape:grid
       type="xygrid"
       id="grid3801" />
  </sodipodi:namedview>
  <defs
     id="defs9483">
    <inkscape:perspective
       sodipodi:type="inkscape:persp3d"
       inkscape:vp_x="0 : 64 : 1"
       inkscape:vp_y="0 : 1000 : 0"
       inkscape:vp_z="128 : 64 : 1"
       inkscape:persp3d-origin="64 : 42.666667 : 1"
       id="perspective98" />
    <linearGradient
       id="linearGradient5048-7">
      <stop
         id="stop5050-5"
         style="stop-color:#000000;stop-opacity:0"
         offset="0" />
      <stop
         id="stop5056-9"
         style="stop-color:#000000;stop-opacity:1"
         offset="0.5" />
      <stop
         id="stop5052-6"
         style="stop-color:#000000;stop-opacity:0"
         offset="1" />
    </linearGradient>
    <linearGradient
       id="linearGradient5060-6">
      <stop
         id="stop5062-3"
         style="stop-color:#000000;stop-opacity:1"
         offset="0" />
      <stop
         id="stop5064-1"
         style="stop-color:#000000;stop-opacity:0"
         offset="1" />
    </linearGradient>
    <linearGradient
       id="linearGradient8265-821-176-38-919-66-249">
      <stop
         id="stop2687"
         style="stop-color:#ffffff;stop-opacity:1"
         offset="0" />
      <stop
         id="stop2689"
         style="stop-color:#ffffff;stop-opacity:0"
         offset="1" />
    </linearGradient>
    <linearGradient
       id="linearGradient3282">
      <stop
         id="stop3284"
         style="stop-color:#000000;stop-opacity:1"
         offset="0" />
      <stop
         id="stop3286"
         style="stop-color:#000000;stop-opacity:0"
         offset="1" />
    </linearGradient>
    <linearGradient
       id="linearGradient2238">
      <stop
         id="stop2240"
         style="stop-color:#ffffff;stop-opacity:1"
         offset="0" />
      <stop
         id="stop2242"
         style="stop-color:#ffffff;stop-opacity:0"
         offset="1" />
    </linearGradient>
    <linearGradient
       x1="12.578789"
       y1="2.9137428"
       x2="12.578789"
       y2="43.810863"
       id="linearGradient3308"
       xlink:href="#linearGradient2238"
       gradientUnits="userSpaceOnUse"
       gradientTransform="matrix(2.6420597,0,0,2.4848291,0.5873493,11.863829)" />
    <linearGradient
       x1="33.579403"
       y1="5.7086449"
       x2="33.579403"
       y2="16.323294"
       id="linearGradient3311"
       xlink:href="#linearGradient2536"
       gradientUnits="userSpaceOnUse"
       gradientTransform="matrix(2.1910236,0,0,1.7591838,-6.608807,8.1210008)" />
    <linearGradient
       x1="16.91585"
       y1="7.0006418"
       x2="16.91585"
       y2="14"
       id="linearGradient3313"
       xlink:href="#linearGradient2529"
       gradientUnits="userSpaceOnUse"
       gradientTransform="matrix(2.6888891,0,0,2.6669522,-0.5333398,-0.5038536)" />
    <linearGradient
       x1="24.682861"
       y1="9.2416716"
       x2="24.682861"
       y2="13.523027"
       id="linearGradient3316"
       xlink:href="#linearGradient3282"
       gradientUnits="userSpaceOnUse"
       gradientTransform="matrix(2.6081214,0,0,0.9360169,1.4228412,27.349641)" />
    <linearGradient
       x1="16.626165"
       y1="15.298182"
       x2="20.054544"
       y2="24.627615"
       id="linearGradient3319"
       xlink:href="#linearGradient8265-821-176-38-919-66-249"
       gradientUnits="userSpaceOnUse"
       gradientTransform="matrix(2.6122449,0,0,2.7868791,1.3061199,3.3658151)" />
    <radialGradient
       cx="26.616697"
       cy="-2.0644982"
       r="23"
       fx="26.616697"
       fy="-2.0644982"
       id="radialGradient3322"
       xlink:href="#linearGradient3242-593-605-251-305"
       gradientUnits="userSpaceOnUse"
       gradientTransform="matrix(-4.8906066e-8,-2.8514561,3.7557195,0,96.173997,156.12002)" />
    <linearGradient
       x1="10.014208"
       y1="44.960102"
       x2="10.014208"
       y2="2.8764627"
       id="linearGradient3324"
       xlink:href="#linearGradient3332-412-419-652-471"
       gradientUnits="userSpaceOnUse"
       gradientTransform="matrix(2.5745574,0,0,2.4174817,2.2106631,10.950807)" />
    <radialGradient
       cx="605.71429"
       cy="486.64789"
       r="117.14286"
       fx="605.71429"
       fy="486.64789"
       id="radialGradient3327"
       xlink:href="#linearGradient5060-6"
       gradientUnits="userSpaceOnUse"
       gradientTransform="matrix(-0.144583,0,0,0.0535294,105.13447,91.373542)" />
    <radialGradient
       cx="605.71429"
       cy="486.64789"
       r="117.14286"
       fx="605.71429"
       fy="486.64789"
       id="radialGradient3330"
       xlink:href="#linearGradient5060-6"
       gradientUnits="userSpaceOnUse"
       gradientTransform="matrix(0.1445831,0,0,0.0535294,22.86553,91.373542)" />
    <linearGradient
       x1="302.85715"
       y1="366.64789"
       x2="302.85715"
       y2="609.50507"
       id="linearGradient3333"
       xlink:href="#linearGradient5048-7"
       gradientUnits="userSpaceOnUse"
       gradientTransform="matrix(0.1905325,0,0,0.0535294,-4.8639063,91.373542)" />
    <linearGradient
       id="linearGradient2536">
      <stop
         id="stop2538"
         style="stop-color:#fdfdf8;stop-opacity:1"
         offset="0" />
      <stop
         id="stop2540"
         style="stop-color:#d6d3b4;stop-opacity:1"
         offset="1" />
    </linearGradient>
    <linearGradient
       id="linearGradient2529">
      <stop
         id="stop2531"
         style="stop-color:#aeae94;stop-opacity:1"
         offset="0" />
      <stop
         id="stop2533"
         style="stop-color:#626337;stop-opacity:1"
         offset="1" />
    </linearGradient>
    <linearGradient
       id="linearGradient3242-593-605-251-305">
      <stop
         id="stop2749"
         style="stop-color:#d78ec1;stop-opacity:1"
         offset="0" />
      <stop
         id="stop2751"
         style="stop-color:#c564be;stop-opacity:1"
         offset="0.26238" />
      <stop
         id="stop2753"
         style="stop-color:#9d3ea4;stop-opacity:1"
         offset="0.66093999" />
      <stop
         id="stop2755"
         style="stop-color:#5e2c73;stop-opacity:1"
         offset="1" />
    </linearGradient>
    <linearGradient
       id="linearGradient3332-412-419-652-471">
      <stop
         id="stop2759"
         style="stop-color:#650d5c;stop-opacity:1"
         offset="0" />
      <stop
         id="stop2761"
         style="stop-color:#ad53a5;stop-opacity:1"
         offset="1" />
    </linearGradient>
    <linearGradient
       id="linearGradient8589">
      <stop
         id="stop8591"
         style="stop-color:#fefefe;stop-opacity:1"
         offset="0" />
      <stop
         id="stop8593"
         style="stop-color:#cbcbcb;stop-opacity:1"
         offset="1" />
    </linearGradient>
    <linearGradient
       id="linearGradient3211">
      <stop
         id="stop3213"
         style="stop-color:#ffffff;stop-opacity:1"
         offset="0" />
      <stop
         id="stop3215"
         style="stop-color:#ffffff;stop-opacity:0"
         offset="1" />
    </linearGradient>
    <linearGradient
       id="linearGradient3600">
      <stop
         id="stop3602"
         style="stop-color:#f4f4f4;stop-opacity:1"
         offset="0" />
      <stop
         id="stop3604"
         style="stop-color:#dbdbdb;stop-opacity:1"
         offset="1" />
    </linearGradient>
    <linearGradient
       id="linearGradient3104">
      <stop
         id="stop3106"
         style="stop-color:#aaaaaa;stop-opacity:1"
         offset="0" />
      <stop
         id="stop3108"
         style="stop-color:#c8c8c8;stop-opacity:1"
         offset="1" />
    </linearGradient>
    <linearGradient
       x1="-51.786404"
       y1="50.786446"
       x2="-51.786404"
       y2="2.9062471"
       id="linearGradient2438"
       xlink:href="#linearGradient3104"
       gradientUnits="userSpaceOnUse"
       gradientTransform="matrix(0.3922135,0,0,0.4473607,28.199292,-1.2386997)" />
    <linearGradient
       x1="25.132275"
       y1="0.98520643"
       x2="25.132275"
       y2="47.013336"
       id="linearGradient2435"
       xlink:href="#linearGradient3600"
       gradientUnits="userSpaceOnUse"
       gradientTransform="matrix(0.4857154,0,0,0.4780255,-0.6571704,-0.7059501)" />
    <linearGradient
       x1="24"
       y1="1.9999999"
       x2="24"
       y2="46.01725"
       id="linearGradient2429"
       xlink:href="#linearGradient3211"
       gradientUnits="userSpaceOnUse"
       gradientTransform="matrix(0.4545444,0,0,0.4651153,0.09093361,0.3372293)" />
    <linearGradient
       x1="32.892288"
       y1="8.0590115"
       x2="36.358372"
       y2="5.4565363"
       id="linearGradient2425"
       xlink:href="#linearGradient8589"
       gradientUnits="userSpaceOnUse"
       gradientTransform="matrix(0.4778466,0,0,0.5524833,-0.6277461,-0.0761283)" />
    <radialGradient
       cx="102"
       cy="112.3047"
       r="139.55859"
       id="XMLID_8_"
       gradientUnits="userSpaceOnUse">
      <stop
         id="stop41"
         style="stop-color:#b7b8b9;stop-opacity:1"
         offset="0" />
      <stop
         id="stop47"
         style="stop-color:#ececec;stop-opacity:1"
         offset="0.17402567" />
      <stop
         id="stop49"
         style="stop-color:#fafafa;stop-opacity:0"
         offset="0.23907544" />
      <stop
         id="stop51"
         style="stop-color:#ffffff;stop-opacity:0"
         offset="0.30111277" />
      <stop
         id="stop53"
         style="stop-color:#fafafa;stop-opacity:0"
         offset="0.53130001" />
      <stop
         id="stop55"
         style="stop-color:#ebecec;stop-opacity:0"
         offset="0.84490001" />
      <stop
         id="stop57"
         style="stop-color:#e1e2e3;stop-opacity:0"
         offset="1" />
    </radialGradient>
    <linearGradient
       x1="25.132275"
       y1="0.98520643"
       x2="25.132275"
       y2="47.013336"
       id="linearGradient3534"
       xlink:href="#linearGradient3600"
       gradientUnits="userSpaceOnUse"
       gradientTransform="matrix(0.4857154,0,0,0.4780255,-0.6571704,-0.7059501)" />
    <linearGradient
       x1="-51.786404"
       y1="50.786446"
       x2="-51.786404"
       y2="2.9062471"
       id="linearGradient3536"
       xlink:href="#linearGradient3104"
       gradientUnits="userSpaceOnUse"
       gradientTransform="matrix(0.3922135,0,0,0.4473607,28.199292,-1.2386997)" />
    <radialGradient
       cx="92.090363"
       cy="102.70267"
       r="139.55859"
       fx="92.090363"
       fy="102.70267"
       id="radialGradient3538"
       xlink:href="#XMLID_8_"
       gradientUnits="userSpaceOnUse"
       gradientTransform="matrix(0.1702128,0,0,-0.1907226,0.1063822,23.716504)" />
    <linearGradient
       x1="24"
       y1="1.9999999"
       x2="24"
       y2="46.01725"
       id="linearGradient3540"
       xlink:href="#linearGradient3211"
       gradientUnits="userSpaceOnUse"
       gradientTransform="matrix(0.4545444,0,0,0.4651153,0.09093361,0.3372293)" />
    <linearGradient
       x1="32.892288"
       y1="8.0590115"
       x2="36.358372"
       y2="5.4565363"
       id="linearGradient3542"
       xlink:href="#linearGradient8589"
       gradientUnits="userSpaceOnUse"
       gradientTransform="matrix(0.4778466,0,0,0.5524833,-0.6277461,-0.0761283)" />
    <radialGradient
       cx="92.090363"
       cy="102.70267"
       r="139.55859"
       fx="92.090363"
       fy="102.70267"
       id="radialGradient3544"
       xlink:href="#XMLID_8_"
       gradientUnits="userSpaceOnUse"
       gradientTransform="matrix(0.1702128,0,0,-0.1907226,0.1063822,23.716504)" />
  </defs>
  <rect
     width="92"
     height="13"
     x="18"
     y="111"
     id="rect2512"
     style="opacity:0.3;fill:url(#linearGradient3333);fill-opacity:1;fill-rule:nonzero;stroke:none;stroke-width:1;marker:none;visibility:visible;display:inline;overflow:visible" />
  <path
     d="m 110,111.00044 c 0,0 0,12.99926 0,12.99926 7.44567,0.0245 18.00001,-2.91247 18,-6.50047 0,-3.588 -8.30881,-6.49879 -18,-6.49879 z"
     id="path2514"
     style="opacity:0.3;fill:url(#radialGradient3330);fill-opacity:1;fill-rule:nonzero;stroke:none;stroke-width:1;marker:none;visibility:visible;display:inline;overflow:visible" />
  <path
     d="m 18,111.00044 c 0,0 0,12.99926 0,12.99926 -7.445669,0.0245 -18,-2.91247 -18,-6.50047 0,-3.588 8.3088039,-6.49879 18,-6.49879 z"
     id="path2516"
     style="opacity:0.3;fill:url(#radialGradient3327);fill-opacity:1;fill-rule:nonzero;stroke:none;stroke-width:1;marker:none;visibility:visible;display:inline;overflow:visible" />
  <rect
     width="120.99786"
     height="98.997864"
     rx="4.49893"
     ry="4.4989338"
     x="3.5010662"
     y="19.501066"
     id="rect2573"
     style="fill:#800000;fill-opacity:1;fill-rule:evenodd;stroke:url(#linearGradient3324);stroke-width:1.00213288999999994;stroke-linecap:round;stroke-linejoin:round;stroke-miterlimit:4;stroke-opacity:1;stroke-dasharray:none;stroke-dashoffset:0" />
  <path
     d="M 9.7142866,20 C 6.5579692,20 4,22.728978 4,26.096297 l 0,44.590066 c 0.00724,0.375122 0.16143,0.729862 0.4251409,0.978104 0.2637109,0.248242 0.6128318,0.367292 0.9626127,0.328245 L 122.93877,52.1362 c 0.60468,-0.101739 1.05278,-0.653338 1.06123,-1.306351 l 0,-24.733552 C 124,22.728978 121.44203,20 118.28571,20 L 9.7142866,20 z"
     id="path2603"
     style="opacity:0.2;fill:url(#linearGradient3319);fill-opacity:1;fill-rule:evenodd;stroke:none" />
  <rect
     width="120"
     height="4"
     rx="0"
     ry="0"
     x="4"
     y="36"
     id="rect1436"
     style="opacity:0.2;fill:url(#linearGradient3316);fill-opacity:1;fill-rule:evenodd;stroke:none;stroke-width:1.00000012;marker:none;visibility:visible;display:inline;overflow:visible" />
  <path
     d="m 10.367,19.499997 c 0,0 108.07,0.0229 108.07,0.0229 4.2079,0 6.063,1.363115 6.063,5.085095 0,0 0,10.892001 0,10.892001 0,0 -121.0000059,0 -121.0000059,0 0,0 -3e-7,-10.891589 -3e-7,-10.891589 0,-3.967148 2.0506284,-5.108411 6.8670062,-5.108411 z"
     id="rect2311"
     style="fill:url(#linearGradient3311);fill-opacity:1;fill-rule:evenodd;stroke:url(#linearGradient3313);stroke-width:1;stroke-linecap:butt;stroke-linejoin:miter;stroke-miterlimit:4;stroke-opacity:1;stroke-dasharray:none;stroke-dashoffset:0;marker:none;visibility:visible;display:inline;overflow:visible" />
  <rect
     width="118.99626"
     height="96.996246"
     rx="4.4981275"
     ry="4.4980812"
     x="4.5018659"
     y="20.501919"
     id="rect2601"
     style="opacity:0.4;fill:none;stroke:url(#linearGradient3308);stroke-width:1.00373137;stroke-linecap:round;stroke-linejoin:round;stroke-miterlimit:4;stroke-opacity:1;stroke-dasharray:none;stroke-dashoffset:0" />
  <g
     transform="matrix(0.8235465,0,0,0.9048801,8.9525091,47.91966)"
     id="g3510">
    <path
       d="m 2.4999608,0.499961 c 3.8955799,0 7.6044552,0 11.5000382,0 0.683368,0.2372969 4.541325,3.12817 5.5,5.000039 0,5.729157 3.9e-5,10.270842 3.9e-5,16 l -17.0000772,0 c 0,-7.33336 0,-13.6666811 0,-21.000039 l 0,0 z"
       id="path3512"
       style="fill:url(#linearGradient2435);fill-opacity:1;stroke:url(#linearGradient2438);stroke-width:1.15831435;stroke-linecap:butt;stroke-linejoin:round;stroke-miterlimit:4;stroke-opacity:1;stroke-dasharray:none;stroke-dashoffset:0;display:inline" />
    <path
       d="M 3.1702119,22 C 3.0764249,22 2.9999991,21.91437 2.9999991,21.809277 l 0,-20.5980318 c 0,-0.1052785 0.076426,-0.1907219 0.1702128,-0.1907219 3.5214555,0.052717 7.4238521,-0.0788581 10.9410271,0.013125 l 4.838887,4.3271368 0.04987,16.4484919 C 18.999999,21.914366 18.923742,22 18.829785,22 L 3.1702119,22 z"
       id="path4191"
       style="opacity:0.5;fill:url(#radialGradient3544);fill-opacity:1" />
    <path
       d="m 18.5,5.6770357 c 0,5.2083053 0,10.6146573 0,15.8229643 -5,0 -9.9999997,0 -15.0000009,0 0,-6.66667 0,-13.3333343 0,-20.0000001 3.4372614,0 6.9564989,0 10.3937609,0"
       id="path3515"
       style="opacity:0.6;fill:none;stroke:url(#linearGradient2429);stroke-width:1.15840483;stroke-linecap:butt;stroke-linejoin:miter;stroke-miterlimit:4;stroke-opacity:1;stroke-dasharray:none;stroke-dashoffset:0;display:inline" />
    <path
       d="m 13.075473,1 c 1.156303,0.3287671 0.339059,4.6143789 0.339059,4.6143789 0,0 4.515388,-0.4277362 5.60771,1.1949961 C 20.511395,9.0216317 18.954022,6.1742029 18.848795,5.9876778 18.092867,4.6476323 14.982455,1.4405918 13.803386,1.0464703 13.715154,1.0169778 13.51951,1 13.075473,1 z"
       id="path3370"
       style="opacity:0.2;fill:#000000;fill-opacity:1;fill-rule:evenodd;stroke:none;display:inline" />
    <path
       d="m 12.999999,1 c 1.526166,0 1,4 1,4 0,0 4.992074,-0.45326 4.992074,2 0,-0.5977419 0.05575,-1.4784338 -0.06407,-1.6559326 C 18.088896,4.1010616 15.184238,1.4821803 14.129934,1.0464703 14.043956,1.0109384 13.444036,1 12.999999,1 z"
       id="path3518"
       style="fill:url(#linearGradient2425);fill-opacity:1;fill-rule:evenodd;stroke:none;display:inline" />
  </g>
  <g
     transform="matrix(0.8235465,0,0,0.9048801,8.9625209,76.576144)"
     id="g3522">
    <path
       d="m 2.4999608,0.499961 c 3.8955799,0 7.6044552,0 11.5000382,0 0.683368,0.2372969 4.541325,3.12817 5.5,5.000039 0,5.729157 3.9e-5,10.270842 3.9e-5,16 l -17.0000772,0 c 0,-7.33336 0,-13.6666811 0,-21.000039 l 0,0 z"
       id="path3524"
       style="fill:url(#linearGradient3534);fill-opacity:1;stroke:url(#linearGradient3536);stroke-width:1.15831435;stroke-linecap:butt;stroke-linejoin:round;stroke-miterlimit:4;stroke-opacity:1;stroke-dasharray:none;stroke-dashoffset:0;display:inline" />
    <path
       d="M 3.1702119,22 C 3.0764249,22 2.9999991,21.91437 2.9999991,21.809277 l 0,-20.5980318 c 0,-0.1052785 0.076426,-0.1907219 0.1702128,-0.1907219 3.5214555,0.052717 7.4238521,-0.0788581 10.9410271,0.013125 l 4.838887,4.3271368 0.04987,16.4484919 C 18.999999,21.914366 18.923742,22 18.829785,22 L 3.1702119,22 z"
       id="path3526"
       style="opacity:0.5;fill:url(#radialGradient3538);fill-opacity:1" />
    <path
       d="m 18.5,5.6770357 c 0,5.2083053 0,10.6146573 0,15.8229643 -5,0 -9.9999997,0 -15.0000009,0 0,-6.66667 0,-13.3333343 0,-20.0000001 3.4372614,0 6.9564989,0 10.3937609,0"
       id="path3528"
       style="opacity:0.6;fill:none;stroke:url(#linearGradient3540);stroke-width:1.15840483;stroke-linecap:butt;stroke-linejoin:miter;stroke-miterlimit:4;stroke-opacity:1;stroke-dasharray:none;stroke-dashoffset:0;display:inline" />
    <path
       d="m 13.075473,1 c 1.156303,0.3287671 0.339059,4.6143789 0.339059,4.6143789 0,0 4.515388,-0.4277362 5.60771,1.1949961 C 20.511395,9.0216317 18.954022,6.1742029 18.848795,5.9876778 18.092867,4.6476323 14.982455,1.4405918 13.803386,1.0464703 13.715154,1.0169778 13.51951,1 13.075473,1 z"
       id="path3530"
       style="opacity:0.2;fill:#000000;fill-opacity:1;fill-rule:evenodd;stroke:none;display:inline" />
    <path
       d="m 12.999999,1 c 1.526166,0 1,4 1,4 0,0 4.992074,-0.45326 4.992074,2 0,-0.5977419 0.05575,-1.4784338 -0.06407,-1.6559326 C 18.088896,4.1010616 15.184238,1.4821803 14.129934,1.0464703 14.043956,1.0109384 13.444036,1 12.999999,1 z"
       id="path3532"
       style="fill:url(#linearGradient3542);fill-opacity:1;fill-rule:evenodd;stroke:none;display:inline" />
  </g>
  <path
     style="fill:#550000;stroke-width:1.00199997;stroke-miterlimit:4;stroke-dasharray:none"
     d="m 3.0140649,45.793973 0,-2.503007 0.4822307,0 0.4822308,0 0,2.503007 0,2.503007 -0.4822308,0 -0.4822307,0 0,-2.503007 z"
     id="path3688" />
  <path
     style="fill:#550000;stroke-width:1.00199997;stroke-miterlimit:4;stroke-dasharray:none"
     d="m 3.0140649,41.867237 0,-1.423729 0.4822307,0 0.4822308,0 0,1.423729 0,1.423729 -0.4822308,0 -0.4822307,0 0,-1.423729 z"
     id="path3690" />
  <path
     style="fill:#550000;stroke-width:1.00199997;stroke-miterlimit:4;stroke-dasharray:none"
     d="m 3.0140649,42.165761 0,-6.131219 0.4822307,0 0.4822308,0 0,6.131219 0,6.131219 -0.4822308,0 -0.4822307,0 0,-6.131219 z"
     id="path3692" />
  <path
     style="fill:#550000;stroke-width:1.00199997;stroke-miterlimit:4;stroke-dasharray:none"
     d="m 3.0020438,48.236364 c 0.0011,-1.121913 0.00294,-1.565807 0.00409,-0.986431 l 0.00209,1.053411 0.4870962,0 0.4870962,0 0,-1.051381 c 0,-0.695509 0.00275,-1.051382 0.00812,-1.051382 0.00539,0 0.00812,0.684684 0.00812,2.037813 l 0,2.037813 -0.4993047,0 -0.4993048,0 0.002,-2.039843 z"
     id="path3698" />
  <path
     style="fill:#550000;stroke-width:1.00199997;stroke-miterlimit:4;stroke-dasharray:none"
     d="m 3.0028354,50.144277 c 0.00287,-0.07256 0.00765,-1.57961 0.010631,-3.348995 l 0.00542,-3.217066 0.4777083,0 0.4777084,0 0.00193,2.25905 c 0.00106,1.242477 0.0038,2.050803 0.00609,1.796279 l 0.00416,-0.46277 0.00608,0.690096 c 0.00335,0.379553 0.00609,1.078275 0.00609,1.552716 l 5.2e-6,0.86262 -0.5005172,0 -0.5005173,0 0.00522,-0.13193 z"
     id="path3700" />
  <path
     style="fill:#550000;stroke-width:1.00199997;stroke-miterlimit:4;stroke-dasharray:none"
     d="m 3.0000448,51.55927 0,-1.278707 0.4993048,0 0.4993047,0 0,1.278707 0,1.278708 -0.4993047,0 -0.4993048,0 0,-1.278708 z"
     id="path3702" />
  <path
     style="fill:#550000;stroke-width:1.00199997;stroke-miterlimit:4;stroke-dasharray:none"
     d="m 3.0117369,48.397932 c 1.32e-5,-2.435836 0.00485,-4.697322 0.010753,-5.025523 l 0.010729,-0.59673 0.4655612,0 0.4655613,0 0.010812,3.510009 c 0.00595,1.930505 0.010813,4.19199 0.010813,5.025523 l 0,1.515513 -0.4871266,0 -0.4871266,0 2.4e-5,-4.428792 0,0 z"
     id="path3704" />
  <path
     style="fill:#550000;stroke-width:1.00199997;stroke-miterlimit:4;stroke-dasharray:none"
     d="m 3.0117129,56.929954 0,-4.083745 0.4871266,0 0.4871266,0 0,4.083745 0,4.083745 -0.4871266,0 -0.4871266,0 0,-4.083745 z"
     id="path3706" />
  <path
     style="fill:#550000;stroke-width:1.00199997;stroke-miterlimit:4;stroke-dasharray:none"
     d="m 3.0117129,54.827191 0,-6.186508 0.4871266,0 0.4871266,0 0,6.186508 0,6.186508 -0.4871266,0 -0.4871266,0 0,-6.186508 z"
     id="path3708" />
  <path
     style="fill:#550000;stroke-width:1.00199997;stroke-miterlimit:4;stroke-dasharray:none"
     d="m 3.9557689,70.217647 0,-0.757791 -0.4566827,0 -0.4566827,0 -0.014066,-10.207217 c -0.00774,-5.61397 -0.00775,-11.66941 -3.55e-5,-13.456534 l 0.014031,-3.249317 0.4567182,0 0.4567181,0 0.00558,2.606343 c 0.012101,5.647533 0.016708,25.822302 0.0059,25.822305 -0.00631,10e-7 -0.011482,-0.341004 -0.011482,-0.757789 z"
     id="path3710" />
  <path
     style="fill:#550000;stroke-width:1.00199997;stroke-miterlimit:4;stroke-dasharray:none"
     d="m 3.9557689,88.822759 0,-0.436304 -0.4600882,0 -0.4600883,0 0.00678,-14.260251 0.00678,-14.260252 0.453304,0 0.453304,0 0.0051,5.476764 c 0.0028,3.012219 0.010944,9.625669 0.018093,14.696555 0.00715,5.070886 0.00486,9.219792 -0.0051,9.219792 -0.00995,0 -0.018093,-0.196336 -0.018093,-0.436304 z"
     id="path3712" />
  <path
     style="fill:#550000;stroke-width:1.00199997;stroke-miterlimit:4;stroke-dasharray:none"
     d="m 3.0372342,93.643196 c 0,-4.694131 0.013734,-10.150227 0.030521,-12.124658 l 0.030521,-3.589874 0.4287467,0 0.4287467,0 0.00232,3.938218 c 0.00128,2.166019 0.013033,7.622116 0.026128,12.124658 l 0.023808,8.18644 -0.4853949,0 -0.4853949,0 0,-8.534784 z"
     id="path3714" />
  <path
     style="fill:#550000;stroke-width:1.00199997;stroke-miterlimit:4;stroke-dasharray:none"
     d="m 3.3993747,115.89405 c -0.051624,-0.11999 -0.1488017,-0.40416 -0.2159497,-0.6315 l -0.1220871,-0.41334 -0.01527,-8.70311 c -0.0084,-4.78672 -9.719e-4,-10.692321 0.016504,-13.123567 l 0.031775,-4.420449 0.4307114,0 0.4307113,0 0.00626,4.489339 c 0.00344,2.469136 0.020041,8.354077 0.036884,13.077637 l 0.030624,8.5883 0.1020286,0.33648 c 0.081537,0.2689 0.2463697,0.66331 0.4111958,0.98391 0.00974,0.019 -0.222419,0.0345 -0.5159083,0.0345 l -0.5336168,0 -0.093863,-0.21815 0,0 z"
     id="path3716" />
  <path
     style="fill:#550000;stroke-width:1.00199997;stroke-miterlimit:4;stroke-dasharray:none"
     d="m 6.8556653,118.864 c -0.9150593,-0.22076 -1.6960985,-0.65063 -2.3532568,-1.29518 -0.6375112,-0.62529 -1.0882672,-1.3936 -1.3239533,-2.25667 -0.038194,-0.13987 -0.043329,-0.19153 -0.00773,-0.0778 0.1210426,0.38671 0.2048866,0.61925 0.3027222,0.83957 l 0.02131,0.048 0.4159558,-0.005 c 0.3720467,-0.005 0.5750754,-0.0134 0.6168956,-0.0265 0.00781,-0.002 0.014208,-0.009 0.014208,-0.0144 0,-0.005 -0.029228,-0.0695 -0.06495,-0.14224 -0.073079,-0.14888 -0.087148,-0.194 -0.021832,-0.07 0.2578226,0.48941 0.6211704,0.92811 1.0529168,1.27125 0.6560086,0.52139 1.4404982,0.81598 2.289495,0.85973 0.099327,0.005 1.1346592,0.008 2.7786517,0.008 l 2.620335,7e-5 0,0.44654 0,0.44653 -3.107462,-7.7e-4 -3.1074617,-7.8e-4 -0.125841,-0.0304 0,0 z"
     id="path3718" />
  <path
     style="fill:#550000;stroke-width:1.00199997;stroke-miterlimit:4;stroke-dasharray:none"
     d="m 9.4252581,118.88782 -2.4843457,-0.004 -0.1299004,-0.0341 c -0.7482472,-0.19643 -1.3526702,-0.49191 -1.9038531,-0.93072 -0.5114009,-0.40715 -0.9399857,-0.90653 -1.2526098,-1.45953 -0.066326,-0.11732 -0.1926563,-0.36885 -0.1921737,-0.38262 1.974e-4,-0.006 0.00759,0.003 0.016432,0.0202 l 0.016073,0.0305 0.087083,-0.001 c 0.047896,-5.9e-4 0.1290976,-0.004 0.1804489,-0.007 0.083354,-0.005 0.074118,-0.006 -0.086118,-0.007 l -0.1794837,-0.001 -0.058232,-0.13752 C 3.3376117,115.7352 3.2611067,115.51051 3.1295913,115.06617 l -0.065395,-0.22094 0,-0.56049 0,-0.56049 0.4790078,0 0.4790078,0 0,0.51063 0,0.51062 0.056422,0.18556 c 0.1197018,0.39367 0.221676,0.65508 0.3981676,1.0207 0.032043,0.0664 0.055212,0.12364 0.051487,0.12725 -0.011022,0.0107 -0.1788629,0.023 -0.4045926,0.0299 -0.1160985,0.003 -0.1891675,0.008 -0.1623755,0.009 0.05812,0.003 0.5079502,-0.0136 0.5466324,-0.0203 0.014867,-0.003 0.029083,-0.01 0.031592,-0.0165 0.00251,-0.007 -0.00574,-0.0334 -0.01833,-0.0598 -0.025701,-0.0538 -0.022348,-0.0761 0.00375,-0.0249 0.00922,0.0181 0.042781,0.0741 0.074589,0.1246 0.5558038,0.8818 1.4064472,1.50474 2.3981923,1.75624 0.2477248,0.0628 0.4977713,0.10163 0.7550463,0.1172 0.089586,0.005 1.0689334,0.008 2.7908299,0.008 l 2.65281,7e-5 0,0.44654 0,0.44653 -0.643413,-0.002 c -0.353877,-0.001 -1.761369,-0.004 -3.1277589,-0.006 z"
     id="path3720" />
  <path
     style="fill:#550000;stroke-width:1.00199997;stroke-miterlimit:4;stroke-dasharray:none"
     d="m 9.027438,118.88781 -2.1027631,-0.004 -0.1380192,-0.0388 c -0.3163927,-0.0889 -0.4569475,-0.13567 -0.6835306,-0.22753 -1.0150264,-0.41153 -1.8816976,-1.17072 -2.4335717,-2.13177 -0.07099,-0.12363 -0.2077179,-0.39344 -0.207178,-0.40884 1.974e-4,-0.006 0.00759,0.003 0.016432,0.0202 l 0.016073,0.0305 0.058667,-9.6e-4 c 0.044197,-7.3e-4 0.05266,-0.002 0.034311,-0.007 -0.013396,-0.003 -0.039466,-0.007 -0.057933,-0.007 l -0.033577,-9.6e-4 -0.052799,-0.12381 C 3.343408,115.75253 3.256912,115.49878 3.1256697,115.0548 l -0.061473,-0.20796 0,-0.56129 0,-0.5613 0.4790078,0 0.4790078,0 0,0.51139 0,0.5114 0.069504,0.22538 c 0.106994,0.34696 0.2114449,0.61398 0.370366,0.94681 0.041787,0.0875 0.070062,0.15614 0.066,0.16021 -0.00391,0.004 -0.038038,0.0106 -0.075845,0.0149 l -0.068739,0.008 0.071813,-0.003 c 0.039497,-0.002 0.075845,-0.007 0.080773,-0.0117 0.00653,-0.007 0.00392,-0.0205 -0.00965,-0.0516 -0.010233,-0.0234 -0.020247,-0.0499 -0.022254,-0.0589 -0.00472,-0.021 -0.00481,-0.0211 0.089119,0.1299 0.1706353,0.27439 0.3278722,0.4731 0.5644435,0.71332 0.6009979,0.61025 1.3677315,1.00204 2.2175195,1.13312 0.3042117,0.0469 0.1010023,0.0438 3.083105,0.0472 l 2.738058,0.003 0,0.44607 0,0.44607 -1.033115,-0.002 c -0.568212,-0.001 -1.979357,-0.004 -3.135877,-0.006 l 0,0 z m -4.9466368,-2.77452 c -0.023593,-0.002 -0.060127,-0.002 -0.081188,4e-5 -0.021061,0.002 -0.00176,0.003 0.042896,0.003 0.044653,-3e-5 0.061885,-0.001 0.038292,-0.003 l 0,-10e-6 z m 0.24825,-0.008 c -0.029946,-0.002 -0.081094,-0.002 -0.1136628,-3e-5 -0.032569,0.002 -0.00807,0.003 0.054447,0.003 0.062515,1e-5 0.089162,-0.001 0.059216,-0.003 l 0,0 z"
     id="path3722" />
  <path
     style="fill:#550000;stroke-width:1.00199997;stroke-miterlimit:4;stroke-dasharray:none"
     d="m 7.3615678,118.94367 c -0.1419606,-0.0235 0.3574069,-0.029 2.8417172,-0.0315 l 3.013942,-0.003 0,-0.44778 0,-0.44779 16.832148,0 16.832149,0 0,0.48223 0,0.48223 -19.673865,-0.003 c -15.544182,-0.002 -19.7100172,-0.009 -19.8460912,-0.0315 z"
     id="path3724" />
  <path
     style="fill:#550000;stroke-width:1.00199997;stroke-miterlimit:4;stroke-dasharray:none"
     d="m 24.400387,118.95515 c -8.98614,-0.006 -15.4187536,-0.0155 -14.294697,-0.0203 1.124057,-0.005 2.281411,-0.0158 2.571898,-0.0245 0.292267,-0.009 -0.866876,-0.0176 -2.595323,-0.0199 -3.4997042,-0.005 -3.132894,0.0121 -3.6851586,-0.16958 -1.1683126,-0.38444 -2.1978051,-1.25367 -2.7822433,-2.34914 -0.060643,-0.11367 -0.110458,-0.2137 -0.1107004,-0.22229 -2.425e-4,-0.009 0.02281,-0.0201 0.051227,-0.0256 0.048334,-0.009 0.047943,-0.0102 -0.00605,-0.0131 -0.051441,-0.003 -0.068133,-0.0301 -0.1535554,-0.2512 -0.052712,-0.13644 -0.1481596,-0.41741 -0.2121049,-0.62438 l -0.1162642,-0.3763 0,-3.62384 0,-3.62385 0.4592674,0 c 0.252597,0 0.4599078,0.003 0.4606906,0.006 7.829e-4,0.003 0.010156,1.61777 0.020829,3.58802 l 0.019405,3.58229 0.1133407,0.33297 c 0.1383449,0.40642 0.3516574,0.89738 0.3818035,0.87875 0.012661,-0.008 0.015898,0.003 0.00757,0.0243 -0.00801,0.0209 -0.00608,0.0355 0.00428,0.0325 0.010359,-0.003 0.082289,0.0882 0.1598463,0.20271 0.3734419,0.5513 0.9404429,1.04228 1.5423709,1.33559 0.3104393,0.15127 0.5709247,0.24136 0.9223852,0.31903 0.2824699,0.0624 0.2839602,0.0625 1.5572073,0.0791 0.7009568,0.009 9.5748635,0.0177 19.7197925,0.019 l 18.445325,0.002 0,0.48223 0,0.48223 -3.07135,-0.006 c -1.689243,-0.003 -10.423647,-0.0109 -19.409787,-0.0172 z"
     id="path3726" />
  <path
     style="fill:#550000;stroke-width:1.00199997;stroke-miterlimit:4;stroke-dasharray:none"
     d="m 46.881824,118.49588 0,-0.48223 15.775834,0 15.775834,0 0,0.48223 0,0.48223 -15.775834,0 -15.775834,0 0,-0.48223 z"
     id="path3728" />
  <path
     style="fill:#550000;stroke-width:1.00199997;stroke-miterlimit:4;stroke-dasharray:none"
     d="m 78.450012,118.49588 0,-0.48223 17.096228,0 17.09623,0 0,0.48223 0,0.48223 -17.09623,0 -17.096228,0 0,-0.48223 z"
     id="path3730" />
  <path
     style="fill:#550000;stroke-width:1.00199997;stroke-miterlimit:4;stroke-dasharray:none"
     d="m 68.529837,118.49588 0,-0.48223 22.056315,0 22.056318,0 0,0.48223 0,0.48223 -22.056318,0 -22.056315,0 0,-0.48223 z"
     id="path3732" />
  <path
     style="fill:#550000;stroke-width:1.00199997;stroke-miterlimit:4;stroke-dasharray:none"
     d="m 112.66131,118.49652 0,-0.48159 3.87507,-0.007 c 3.56875,-0.007 3.89231,-0.0106 4.09322,-0.0475 0.43366,-0.0797 0.81168,-0.20177 1.14586,-0.37006 l 0.16307,-0.0821 0.80074,0.006 0.80073,0.006 -0.19796,0.17702 c -0.75566,0.67574 -1.63798,1.08905 -2.63907,1.23623 -0.29381,0.0432 -0.45385,0.0449 -4.17359,0.0449 l -3.86807,0 0,-0.48159 z"
     id="path3734" />
  <path
     style="fill:#550000;stroke-width:1.00199997;stroke-miterlimit:4;stroke-dasharray:none"
     d="m 92.775034,118.49588 0,-0.48223 13.542646,-6.8e-4 c 7.71918,-3.8e-4 13.71545,-0.01 13.94451,-0.0214 0.34233,-0.0176 0.44777,-0.0326 0.71186,-0.10099 0.30291,-0.0785 0.57254,-0.17653 0.84205,-0.3063 l 0.13389,-0.0645 0.77793,0.0115 0.77792,0.0115 -0.25211,0.21188 c -0.68564,0.57619 -1.4354,0.94309 -2.29665,1.12384 l -0.29304,0.0615 -2.07818,0.0165 c -1.143,0.009 -7.41803,0.0176 -13.94451,0.019 l -11.866316,0.003 0,-0.48223 z"
     id="path3736" />
  <path
     style="fill:#550000;stroke-width:1.00199997;stroke-miterlimit:4;stroke-dasharray:none"
     d="m 122.0758,117.43305 c 0.50019,-0.30017 1.04321,-0.84271 1.34425,-1.3431 0.26428,-0.43927 0.48348,-1.03779 0.53224,-1.45323 l 0.0147,-0.12498 0.49125,0.007 c 0.56829,0.008 0.513,-0.0289 0.45835,0.30339 -0.1536,0.93406 -0.60846,1.86928 -1.23483,2.53887 l -0.1383,0.14785 -0.79535,-7.8e-4 -0.79534,-7.7e-4 0.12307,-0.0739 z"
     id="path3738" />
  <path
     style="fill:#550000;stroke-width:1.00199997;stroke-miterlimit:4;stroke-dasharray:none"
     d="M 124 105.875 L 124 105.90625 L 124 108.1875 L 124 109.625 L 124 110.53125 L 124 110.5625 L 124 111.9375 L 124 113.34375 L 124.5 113.34375 L 125 113.34375 L 125 111.9375 L 125 110.5625 L 125 110.53125 L 125 109.625 L 125 105.90625 L 125 105.875 L 124.5 105.875 L 124 105.875 z M 123.96875 114.53125 L 123.9375 114.71875 C 123.85826 115.22711 123.57317 115.93914 123.25 116.375 C 122.98885 116.72721 122.57026 117.11196 122.1875 117.375 C 122.0256 117.48622 122.02455 117.5 122.09375 117.5 C 122.01983 117.49295 121.94384 117.52386 121.71875 117.625 C 121.41576 117.76116 121.15217 117.865 120.84375 117.9375 C 120.68019 117.976 120.50762 117.9837 119.84375 118 C 119.40802 118.0108 114.9424 117.99909 109.90625 118 L 100.75 118 L 100.75 118.5 L 100.75 118.96875 L 108.6875 118.96875 C 113.06059 118.96745 117.54482 118.97875 118.65625 118.96875 L 120.6875 118.9375 L 120.96875 118.875 C 121.83006 118.68914 122.56824 118.32247 123.25 117.75 L 123.5 117.53125 L 123.375 117.53125 L 123.21875 117.53125 L 123.375 117.5 L 123.53125 117.5 L 123.71875 117.3125 C 124.15683 116.80752 124.44217 116.27493 124.65625 115.6875 C 124.78749 115.32737 124.9511 114.76434 124.9375 114.625 C 124.9311 114.5593 124.8929 114.54785 124.8125 114.53125 C 124.76277 114.52085 124.55239 114.52825 124.34375 114.53125 L 123.96875 114.53125 z "
     id="path3740" />
  <path
     style="fill:#550000;stroke-width:1.00199997;stroke-miterlimit:4;stroke-dasharray:none"
     d="m 124.90333,114.53344 c -0.0188,-0.0119 -0.23467,-0.0218 -0.47962,-0.022 l -0.44537,-3.5e-4 0.0146,-0.15501 c 0.008,-0.0853 0.0147,-0.34359 0.0148,-0.57408 l 1.6e-4,-0.41908 0.49724,0 0.49725,0 -0.0132,0.57685 c -0.007,0.31727 -0.0219,0.58551 -0.0324,0.59609 -0.0106,0.0106 -0.0346,0.01 -0.0535,-0.002 l 0,0 z"
     id="path3751" />
  <path
     style="fill:#550000;stroke-width:1.00199997;stroke-miterlimit:4;stroke-dasharray:none"
     d="m 124.44744,114.51685 -0.46756,-0.007 0.0137,-0.0512 c 0.008,-0.0282 0.0139,-1.97064 0.014,-4.31663 l 3.1e-4,-4.26545 0.49528,0 0.49528,0 -0.0112,4.231 c -0.006,2.32705 -0.0183,4.27492 -0.0269,4.3286 -0.009,0.0537 -0.0224,0.0952 -0.0305,0.0923 -0.008,-0.003 -0.22521,-0.008 -0.48237,-0.012 l 0,0 z"
     id="path3753" />
  <path
     style="fill:#550000;stroke-width:1.00199997;stroke-miterlimit:4;stroke-dasharray:none"
     d="m 100.74606,118.48479 0,-0.4823 9.92591,-0.007 9.92592,-0.007 0.20667,-0.0508 c 0.30624,-0.0753 0.61162,-0.1796 0.89557,-0.30587 0.13893,-0.0618 0.2836,-0.11352 0.32149,-0.11499 0.0415,-0.002 0.0524,-0.007 0.0273,-0.0134 -0.0306,-0.008 0.0109,-0.0466 0.15754,-0.14668 0.55191,-0.37661 1.04948,-0.92022 1.31179,-1.43317 0.22257,-0.43525 0.36952,-0.85275 0.42561,-1.20923 l 0.0283,-0.18005 0.26475,-0.005 0.26475,-0.005 -0.26105,-0.007 -0.26106,-0.007 0.0142,-0.071 c 0.008,-0.039 0.0142,-1.98139 0.0142,-4.31634 l 0,-4.24535 0.49538,0 0.49538,0 -0.0111,4.24248 c -0.006,2.33337 -0.0183,4.28118 -0.0271,4.32847 -0.0159,0.0854 -0.0166,0.0859 -0.11109,0.0745 -0.10081,-0.0122 -0.093,-0.002 0.0172,0.0225 l 0.0664,0.0147 -0.0133,0.15375 c -0.0174,0.20122 -0.14872,0.71396 -0.25691,1.0034 -0.22617,0.6051 -0.57816,1.18871 -0.98679,1.63614 -0.12976,0.14207 -0.1324,0.14356 -0.26119,0.14713 l -0.13012,0.004 0.11046,0.0136 0.11046,0.0136 -0.0875,0.0818 c -0.33203,0.3106 -0.78112,0.62554 -1.17281,0.82247 -0.39013,0.19616 -0.77061,0.32787 -1.3177,0.45616 l -0.26073,0.0611 -9.96036,0.007 -9.96036,0.007 0,-0.4823 z"
     id="path3755" />
  <path
     style="fill:#550000;stroke-width:1.00199997;stroke-miterlimit:4;stroke-dasharray:none"
     d="m 124.0355,103.68828 0,-2.18152 0.48224,0 0.48223,0 0,2.18152 0,2.18152 -0.48223,0 -0.48224,0 0,-2.18152 z"
     id="path3757" />
  <path
     style="fill:#550000;stroke-width:1.00199997;stroke-miterlimit:4;stroke-dasharray:none"
     d="m 124.0355,99.302278 0,-2.204483 0.48224,0 0.48223,0 0,2.204483 0,2.204482 -0.48223,0 -0.48224,0 0,-2.204482 z"
     id="path3759" />
  <path
     style="fill:#550000;stroke-width:1.00199997;stroke-miterlimit:4;stroke-dasharray:none"
     d="m 124.0355,94.916275 0,-2.18152 0.48224,0 0.48223,0 0,2.18152 0,2.18152 -0.48223,0 -0.48224,0 0,-2.18152 z"
     id="path3761" />
  <path
     style="fill:#550000;stroke-width:1.00199997;stroke-miterlimit:4;stroke-dasharray:none"
     d="m 124.0355,89.718699 0,-2.732641 0.48224,0 0.48223,0 0,2.732641 0,2.73264 -0.48223,0 -0.48224,0 0,-2.73264 z"
     id="path3763" />
  <path
     style="fill:#550000;stroke-width:1.00199997;stroke-miterlimit:4;stroke-dasharray:none"
     d="m 124.0355,92.58912 0,-0.137781 0.48224,0 0.48223,0 0,0.137781 0,0.13778 -0.48223,0 -0.48224,0 0,-0.13778 z"
     id="path3765" />
  <path
     style="fill:#550000;stroke-width:1.00199997;stroke-miterlimit:4;stroke-dasharray:none"
     d="m 124.0355,85.493439 0,-1.492619 0.48224,0 0.48223,0 0,1.492619 0,1.492619 -0.48223,0 -0.48224,0 0,-1.492619 z"
     id="path3767" />
  <path
     style="fill:#550000;stroke-width:1.00199997;stroke-miterlimit:4;stroke-dasharray:none"
     d="m 124.0355,81.95708 0,-2.04374 0.48224,0 0.48223,0 0,2.04374 0,2.04374 -0.48223,0 -0.48224,0 0,-2.04374 z"
     id="path3769" />
  <path
     style="fill:#550000;stroke-width:1.00199997;stroke-miterlimit:4;stroke-dasharray:none"
     d="m 124.0355,77.823674 0,-2.089667 0.48224,0 0.48223,0 0,2.089667 0,2.089666 -0.48223,0 -0.48224,0 0,-2.089666 z"
     id="path3771" />
  <path
     style="fill:#550000;stroke-width:1.00199997;stroke-miterlimit:4;stroke-dasharray:none"
     d="m 124.0355,74.034718 0,-1.699289 0.48224,0 0.48223,0 0,1.699289 0,1.699289 -0.48223,0 -0.48224,0 0,-1.699289 z"
     id="path3773" />
  <path
     style="fill:#550000;stroke-width:1.00199997;stroke-miterlimit:4;stroke-dasharray:none"
     d="m 124.0355,70.197629 0,-2.135593 0.48224,0 0.48223,0 0,2.135593 0,2.135593 -0.48223,0 -0.48224,0 0,-2.135593 z"
     id="path3775" />
  <path
     style="fill:#550000;stroke-width:1.00199997;stroke-miterlimit:4;stroke-dasharray:none"
     d="m 124.0355,66.339783 0,-1.722252 0.48224,0 0.48223,0 0,1.722252 0,1.722253 -0.48223,0 -0.48224,0 0,-1.722253 z"
     id="path3777" />
  <path
     style="fill:#550000;stroke-width:1.00199997;stroke-miterlimit:4;stroke-dasharray:none"
     d="m 124.0355,61.402659 0,-2.38819 0.48224,0 0.48223,0 0,2.38819 0,2.38819 -0.48223,0 -0.48224,0 0,-2.38819 z"
     id="path3779" />
  <path
     style="fill:#550000;stroke-width:1.00199997;stroke-miterlimit:4;stroke-dasharray:none"
     d="m 124.0355,55.20255 0,-2.617824 0.48224,0 0.48223,0 0,2.617824 0,2.617824 -0.48223,0 -0.48224,0 0,-2.617824 z"
     id="path3781" />
  <path
     style="fill:#550000;stroke-width:1.00199997;stroke-miterlimit:4;stroke-dasharray:none"
     d="m 124.0355,65.673846 0,-6.659377 0.48224,0 0.48223,0 0,6.659377 0,6.659376 -0.48223,0 -0.48224,0 0,-6.659376 z"
     id="path3783" />
  <path
     style="fill:#550000;stroke-width:1.00199997;stroke-miterlimit:4;stroke-dasharray:none"
     d="m 124.0355,62.458974 0,-9.874248 0.48224,0 0.48223,0 0,9.874248 0,9.874248 -0.48223,0 -0.48224,0 0,-9.874248 z"
     id="path3785" />
  <path
     style="fill:#550000;stroke-width:1.00199997;stroke-miterlimit:4;stroke-dasharray:none"
     d="m 124.0355,50.424698 0,-2.158556 0.48224,0 0.48223,0 0,2.158556 0,2.158557 -0.48223,0 -0.48224,0 0,-2.158557 z"
     id="path3787" />
  <path
     style="fill:#550000;stroke-width:1.00199997;stroke-miterlimit:4;stroke-dasharray:none"
     d="m 124.0355,58.232243 0,-9.966101 0.48224,0 0.48223,0 0,9.966101 0,9.966102 -0.48223,0 -0.48224,0 0,-9.966102 z"
     id="path3789" />
  <path
     style="fill:#550000;stroke-width:1.00199997;stroke-miterlimit:4;stroke-dasharray:none"
     d="m 124.0355,46.543889 0,-1.722253 0.48224,0 0.48223,0 0,1.722253 0,1.722253 -0.48223,0 -0.48224,0 0,-1.722253 z"
     id="path3791" />
  <path
     style="fill:#550000;stroke-width:1.00199997;stroke-miterlimit:4;stroke-dasharray:none"
     d="m 124.0355,41.468985 0,-2.525971 0.48224,0 0.48223,0 0,2.525971 0,2.52597 -0.48223,0 -0.48224,0 0,-2.52597 z"
     id="path3793" />
  <path
     style="fill:#550000;stroke-width:1.00199997;stroke-miterlimit:4;stroke-dasharray:none"
     d="m 124.0355,53.57068 0,-14.627666 0.48224,0 0.48223,0 0,14.627666 0,14.627665 -0.48223,0 -0.48224,0 0,-14.627665 z"
     id="path3795" />
  <path
     style="fill:#550000;stroke-width:1.00199997;stroke-miterlimit:4;stroke-dasharray:none"
     d="m 124.0355,37.477904 0,-1.446692 0.48224,0 0.48223,0 0,1.446692 0,1.446693 -0.48223,0 -0.48224,0 0,-1.446693 z"
     id="path3797" />
  <path
     style="fill:#550000;stroke-width:1.00199997;stroke-miterlimit:4;stroke-dasharray:none"
     d="m 124.0355,46.778068 0,-10.746856 0.48224,0 0.48223,0 0,10.746856 0,10.746857 -0.48223,0 -0.48224,0 0,-10.746857 z"
     id="path3799" />
</svg>
